<svg width="56" height="140" viewBox="0 0 56 140" fill="none" xmlns="http://www.w3.org/2000/svg">
<path opacity="0.25" d="M27.5 84V0" stroke="#87879D"/>
<g clip-path="url(#clip0_24_2)">
<rect y="84" width="56" height="56" rx="28" fill="#FFFFFF"/>
<rect x="0.5" y="84.5" width="55" height="55" rx="27.5" stroke="#87879D" stroke-opacity="0.25"/>
<path d="M23.4661 118.16C22.7087 118.16 22.0154 118.021 21.3861 117.744C20.7567 117.467 20.2234 117.077 19.7861 116.576C19.3487 116.075 19.0074 115.467 18.7621 114.752C18.5167 114.037 18.3941 113.248 18.3941 112.384C18.3941 111.52 18.5167 110.736 18.7621 110.032C19.0074 109.317 19.3487 108.709 19.7861 108.208C20.2341 107.707 20.7674 107.317 21.3861 107.04C22.0154 106.763 22.7087 106.624 23.4661 106.624C24.2234 106.624 24.9114 106.763 25.5301 107.04C26.1594 107.317 26.6927 107.707 27.1301 108.208C27.5781 108.709 27.9247 109.317 28.1701 110.032C28.4154 110.736 28.5381 111.52 28.5381 112.384C28.5381 113.248 28.4154 114.037 28.1701 114.752C27.9247 115.467 27.5834 116.075 27.1461 116.576C26.7087 117.077 26.1754 117.467 25.5461 117.744C24.9167 118.021 24.2234 118.16 23.4661 118.16ZM23.4661 115.92C24.2554 115.92 24.8741 115.605 25.3221 114.976C25.7807 114.347 26.0101 113.483 26.0101 112.384C26.0101 111.307 25.7807 110.453 25.3221 109.824C24.8634 109.184 24.2447 108.864 23.4661 108.864C22.6874 108.864 22.0687 109.184 21.6101 109.824C21.1514 110.453 20.9221 111.307 20.9221 112.384C20.9221 113.483 21.1461 114.347 21.5941 114.976C22.0527 115.605 22.6767 115.92 23.4661 115.92ZM29.3189 118V116.192L33.8149 112.288C34.2203 111.925 34.5136 111.595 34.6949 111.296C34.8869 110.997 34.9829 110.683 34.9829 110.352C34.9829 109.925 34.8123 109.573 34.4709 109.296C34.1296 109.008 33.6976 108.864 33.1749 108.864C32.6523 108.864 32.1616 108.971 31.7029 109.184C31.2549 109.397 30.7589 109.749 30.2149 110.24L28.7749 108.512C29.4469 107.904 30.1616 107.445 30.9189 107.136C31.6869 106.816 32.4709 106.656 33.2709 106.656C33.9003 106.656 34.4763 106.741 34.9989 106.912C35.5216 107.083 35.9643 107.323 36.3269 107.632C36.7003 107.941 36.9883 108.315 37.1909 108.752C37.4043 109.189 37.5109 109.669 37.5109 110.192C37.5109 110.811 37.3456 111.397 37.0149 111.952C36.6949 112.496 36.1669 113.088 35.4309 113.728L32.9669 115.84H37.6229V118H29.3189Z" fill="#87879D"/>
</g>
<defs>
<clipPath id="clip0_24_2">
<rect width="56" height="56" fill="white" transform="translate(0 84)"/>
</clipPath>
</defs>
</svg>
